<svg viewBox="0 0 12 12" width="168px" height="168px" xmlns="http://www.w3.org/2000/svg"><path fill-rule="evenodd" d="M 4,0 7,0 7,1 8,1 8,2 11,2 11,8 10,8 10,11 1,11 1,8 0,8 0,2 3,2 3,1 4,1z" fill="#43BF4D"/><path fill-rule="evenodd" d="M 5,1 6,1 6,2 5,2z" fill="#ffffff"/><path fill-rule="evenodd" d="M 4,2 5,2 5,4 6,4 6,2 7,2 7,3 8,3 8,4 7,4 7,5 4,5 4,4 3,4 3,3 4,3z" fill="#ffffff"/><path fill-rule="evenodd" d="M 1,3 2,3 2,5 1,5z" fill="#ffffff"/><path fill-rule="evenodd" d="M 9,3 10,3 10,5 9,5z" fill="#ffffff"/><path fill-rule="evenodd" d="M 3,5 4,5 4,7 1,7 1,6 3,6z" fill="#ffffff"/><path fill-rule="evenodd" d="M 7,5 8,5 8,6 10,6 10,7 7,7z" fill="#ffffff"/><path fill-rule="evenodd" d="M 5,6 6,6 6,7 7,7 7,10 4,10 4,7 5,7z M 5,8 6,8 6,9 5,9z" fill="#ffffff"/><path fill-rule="evenodd" d="M 2,8 3,8 3,10 2,10z" fill="#ffffff"/><path fill-rule="evenodd" d="M 8,8 9,8 9,10 8,10z" fill="#ffffff"/></svg>